P3
6 3
255
 53  255   55
  0  255    0
255  255  255
200  200  200
 60    0  250  
190   50    0  
 55   61  255
  0    0    0
  0  200  200
235  235    0
 18   15  180  
 30  220   35  
 13  135  135
225   60   80
250  250    0
205  205  205
255    0   20  
  0    0    0
